<svg width="80" height="80" viewBox="0 0 80 80" fill="none" xmlns="http://www.w3.org/2000/svg">
<g clip-path="url(#clip0_134_1886)">
<path fill-rule="evenodd" clip-rule="evenodd" d="M0.000507317 75.5721C0.000507317 76.7464 0.592571 77.8727 1.64645 78.7031C2.70033 79.5335 4.1297 80 5.62011 80L5.63026 79.992C7.1205 79.9918 8.5496 79.5252 9.60326 78.6948C10.6569 77.8644 11.2488 76.7383 11.2488 75.5641V49.2181L12.3425 49.5107C15.7656 50.4364 19.3227 50.8833 23.1983 50.8833C30.3853 50.8833 37.6029 49.3236 44.5728 47.8128L44.6763 47.7888C51.8309 46.2363 58.596 44.7742 65.3894 44.7742C70.0087 44.7742 74.1846 45.4649 78.1231 46.8783C78.2986 46.943 78.4843 46.9758 78.6801 46.9758C78.9276 46.9758 79.1752 46.919 79.4014 46.8055C79.7727 46.6184 80 46.2939 80 45.9357V5.30759C80 4.90149 79.6906 4.51937 79.2371 4.3571C74.9374 2.82224 70.4105 2.07399 65.3996 2.07399C58.1415 2.07399 50.9138 3.65042 43.9235 5.17729L43.8738 5.18848C36.7466 6.72813 30.0089 8.18385 23.2196 8.18385C19.0751 8.18385 15.3324 7.63945 11.7551 6.50989L11.2387 6.34761V4.4874C11.2487 3.90096 11.1108 3.31881 10.8329 2.77473C10.555 2.23065 10.1426 1.73549 9.61987 1.31801C9.0971 0.900523 8.47428 0.569027 7.78756 0.342769C7.10085 0.116511 6.36394 0 5.61961 0C4.87528 0 4.13836 0.116511 3.45165 0.342769C2.76494 0.569027 2.14211 0.900523 1.61934 1.31801C1.09656 1.73549 0.684258 2.23065 0.406359 2.77473C0.12846 3.31881 -0.00949362 3.90096 0.000507317 4.4874V75.5721ZM2.65052 4.4882C2.67521 3.8807 2.99884 3.30459 3.55296 2.88174C4.10707 2.45889 4.84821 2.22245 5.61961 2.22245C6.391 2.22245 7.13214 2.45889 7.68626 2.88174C8.24037 3.30459 8.564 3.8807 8.58869 4.4882V75.5713C8.564 76.1788 8.24037 76.7549 7.68626 77.1777C7.13214 77.6006 6.391 77.837 5.61961 77.837C4.84821 77.837 4.10707 77.6006 3.55296 77.1777C2.99884 76.7549 2.67521 76.1788 2.65052 75.5713V4.4882ZM11.7541 47.1309L11.2387 46.9686H11.2488V8.62112L12.3425 8.9137C15.7555 9.82343 19.3024 10.2703 23.178 10.2703C30.3874 10.2703 37.6171 8.70266 44.6428 7.179L44.6966 7.167L44.7139 7.16381C51.8523 5.62095 58.6112 4.16124 65.3904 4.16124C69.5237 4.16124 73.2563 4.70564 76.8245 5.8264L77.3399 5.98948V44.3593L76.2462 44.0667C72.8231 43.1482 69.266 42.7014 65.3691 42.7014C58.11 42.7014 50.9036 44.2618 43.8819 45.7887L43.8018 45.8062C36.6766 47.3435 29.9481 48.7944 23.1891 48.7944C19.0538 48.7944 15.3223 48.2508 11.7551 47.1293L11.7541 47.1309ZM30.0769 26.4958C30.0769 32.6704 36.4483 37.6907 44.2837 37.6907C52.1201 37.6907 58.4915 32.6704 58.4915 26.4958C58.4915 20.3212 52.1201 15.301 44.2837 15.301C36.4483 15.301 30.0769 20.3212 30.0769 26.4958ZM32.7148 26.4958C32.7148 21.4676 37.9123 17.381 44.2837 17.381C50.6652 17.381 55.8526 21.4668 55.8526 26.4958C55.8526 31.5241 50.6662 35.6106 44.2837 35.6106C37.9022 35.6106 32.7148 31.5249 32.7148 26.4958Z" fill="url(#paint0_linear_134_1886)"/>
</g>
<defs>
<linearGradient id="paint0_linear_134_1886" x1="1.9752" y1="-5.14275" x2="68.2999" y2="73.8978" gradientUnits="userSpaceOnUse">
<stop stop-color="#191825"/>
<stop offset="0.21" stop-color="#865DFF"/>
<stop offset="0.46" stop-color="#E384FF"/>
<stop offset="0.77" stop-color="#FFA3FD"/>
<stop offset="1" stop-color="#0AE2FF"/>
</linearGradient>
<clipPath id="clip0_134_1886">
<rect width="80" height="80" fill="white"/>
</clipPath>
</defs>
</svg>
