<svg width="80" height="80" viewBox="0 0 80 80" fill="none" xmlns="http://www.w3.org/2000/svg">
<g clip-path="url(#clip0_134_1880)">
<mask id="mask0_134_1880" style="mask-type:luminance" maskUnits="userSpaceOnUse" x="0" y="0" width="80" height="80">
<path d="M0 0H80V80H0V0Z" fill="white"/>
</mask>
<g mask="url(#mask0_134_1880)">
<path d="M52.1008 79.9759C51.1331 79.9744 50.2055 79.5894 49.5213 78.9051C48.837 78.2209 48.4519 77.2932 48.4504 76.3255V70.9319C48.4504 69.3079 48.9512 65.3351 53.5864 63.5751L53.8368 63.4783V61.9759L53.7152 61.8623C53.6112 61.7655 53.5056 61.6447 53.4008 61.5311C51.8904 59.8591 51.148 57.6072 51.1392 54.7888V54.4096H42.2905V54.7888C42.2905 57.6072 41.5385 59.8599 40.0697 61.4831C39.9241 61.6447 39.8193 61.7655 39.7145 61.8623L39.5929 61.9759V63.4775L39.8433 63.5743C44.4785 65.3343 44.9792 69.3079 44.9792 70.9311V76.3247C44.9778 77.2924 44.5927 78.2201 43.9084 78.9043C43.2242 79.5886 42.2965 79.9736 41.3288 79.9751H27.8673C26.8996 79.9736 25.9719 79.5886 25.2877 78.9043C24.6034 78.2201 24.2183 77.2924 24.2169 76.3247V70.9311C24.2169 69.3071 24.7177 65.3343 29.3529 63.5743L29.6033 63.4775V61.9759L29.4825 61.8623C29.3769 61.7655 29.2721 61.6447 29.1673 61.5311C27.6569 59.8591 26.9065 57.6071 26.9065 54.7808C26.9065 50.5488 30.3545 47.1008 34.5945 47.1008C36.1836 47.1022 37.7333 47.596 39.0302 48.5143C40.3272 49.4326 41.3077 50.7303 41.8369 52.2288L41.9257 52.4872H47.0856V36.4672L40.7145 31.3152C40.6035 31.2257 40.5139 31.1125 40.4525 30.9839C40.391 30.8553 40.3591 30.7145 40.3593 30.572V23.8376C40.3611 23.5833 40.463 23.3401 40.6427 23.1603C40.8225 22.9805 41.0658 22.8787 41.3201 22.8768H47.248L47.304 22.5616C48.0224 18.5648 50.5744 15.052 54.128 13.1704L54.5472 12.9528L54.2488 12.5888C53.0965 11.2137 52.4697 9.4741 52.48 7.67999C52.48 3.448 55.928 0 60.1744 0C64.4224 0 67.8704 3.448 67.8704 7.67999C67.8704 9.49599 67.2568 11.192 66.1024 12.5888L65.8032 12.9528L66.2232 13.1704C69.776 15.052 72.3192 18.5648 73.0472 22.5624L73.1032 22.8768H76.7288L76.7128 22.4728C76.6551 21.2726 76.4349 20.0858 76.0584 18.9448C75.6256 17.6521 74.9905 16.4362 74.1768 15.3424C73.3776 14.2608 72.4168 13.316 71.3264 12.5488C71.1583 12.4381 71.0301 12.2764 70.9604 12.0876C70.8907 11.8987 70.8833 11.6926 70.9392 11.4992C71.0272 11.176 71.3024 10.8288 71.8032 10.796H71.8192C72.0776 10.796 72.2792 10.8608 72.4408 10.9824C73.6996 11.8791 74.8087 12.969 75.7272 14.212C76.6651 15.4642 77.3933 16.8606 77.8832 18.3464C78.3192 19.6632 78.5864 21.108 78.6352 22.5216L78.6512 22.8928H79.0224C79.5632 22.8928 79.9992 23.3208 79.9992 23.8536V30.5888C79.9992 30.8792 79.8696 31.1536 79.644 31.3312L73.2728 36.4832V52.504H79.0384C79.7 52.504 79.9992 52.9888 79.9992 53.4656C79.9992 53.9416 79.7 54.4255 79.0384 54.4255H66.5384V54.8056C66.5384 57.624 65.788 59.8775 64.3184 61.4999C64.1728 61.6615 64.068 61.7823 63.9632 61.8791L63.8416 61.9927V63.4943L64.092 63.5911C68.7272 65.3511 69.228 69.3247 69.228 70.9479V76.3415C69.2265 77.3092 68.8415 78.2369 68.1572 78.9211C67.4729 79.6054 66.5453 79.9904 65.5776 79.9919H52.1168L52.1008 79.9759ZM62.8728 74.0159C63.1312 74.0159 63.3736 74.1055 63.5432 74.2583C63.7368 74.4279 63.8336 74.6703 63.8336 74.9855V78.0623H65.5696C66.5064 78.0623 67.2976 77.2703 67.2976 76.3343V70.9399C67.2976 69.5671 66.8456 66.2639 62.6304 65.1335C62.4255 65.079 62.2442 64.9586 62.1144 64.791C61.9846 64.6233 61.9135 64.4176 61.912 64.2055V63.2359L61.4032 63.4135C60.6112 63.6879 59.7472 63.8335 58.8352 63.8335C57.9232 63.8335 57.0672 63.6967 56.2672 63.4135L55.7584 63.2359V64.2047C55.7584 64.6415 55.468 65.0207 55.04 65.1335C50.824 66.2639 50.3728 69.5671 50.3728 70.9399V76.3335C50.3728 77.2703 51.164 78.0615 52.1008 78.0615H53.8368V74.9855C53.8368 74.6783 53.9336 74.4359 54.1272 74.2583C54.2968 74.1055 54.5392 74.0159 54.7976 74.0159C55.2744 74.0159 55.7584 74.3151 55.7584 74.9775V78.0535H61.912V74.9775C61.912 74.3151 62.396 74.0159 62.872 74.0159H62.8728ZM38.6473 74.0159C38.9057 74.0159 39.1481 74.1055 39.3177 74.2583C39.5113 74.4279 39.6081 74.6703 39.6081 74.9855V78.0623H41.3441C42.2817 78.0623 43.0721 77.2703 43.0721 76.3343V70.9399C43.0721 69.5671 42.6201 66.2639 38.4049 65.1335C38.1999 65.079 38.0186 64.9586 37.8888 64.791C37.759 64.6233 37.6879 64.4176 37.6865 64.2055V63.2359L37.1777 63.4135C36.3865 63.6879 35.5217 63.8335 34.6097 63.8335C33.6977 63.8335 32.8417 63.6967 32.0417 63.4135L31.5337 63.2359V64.2047C31.5337 64.6415 31.2425 65.0207 30.8145 65.1335C26.5993 66.2639 26.1473 69.5671 26.1473 70.9399V76.3335C26.1473 77.2703 26.9393 78.0615 27.8753 78.0615H29.6113V74.9855C29.6113 74.6783 29.7081 74.4359 29.9025 74.2583C30.0721 74.1055 30.3137 74.0159 30.5721 74.0159C31.0489 74.0159 31.5337 74.3151 31.5337 74.9775V78.0535H37.6865V74.9775C37.6865 74.3151 38.1713 74.0159 38.6473 74.0159ZM58.8352 49.024C55.6536 49.024 53.0696 51.608 53.0696 54.7816C53.0696 57.0831 53.6672 58.9559 54.7896 60.1999C55.8152 61.3303 57.172 61.9039 58.8352 61.9119C60.4992 61.9119 61.8552 61.3383 62.8808 60.1999C64.0032 58.9559 64.6008 57.0831 64.6008 54.7816C64.6008 51.608 62.0168 49.032 58.8352 49.024ZM34.6097 49.024C31.4281 49.024 28.8441 51.608 28.8441 54.7816C28.8441 57.0831 29.4417 58.9559 30.5641 60.1999C31.5897 61.3303 32.9465 61.9039 34.6097 61.9119C36.2737 61.9119 37.6297 61.3383 38.6553 60.1999C39.7777 58.9559 40.3753 57.0831 40.3753 54.7816C40.3753 51.608 37.7913 49.032 34.6097 49.024ZM58.8352 47.1024C60.4232 47.1047 61.9715 47.5979 63.2682 48.5145C64.5649 49.4311 65.5465 50.7262 66.0784 52.2224L66.1672 52.48H71.3272V29.216C71.3432 28.5776 71.82 28.2792 72.288 28.2792C72.7568 28.2792 73.2328 28.5696 73.2488 29.2232V33.996L78.0536 30.12V24.816H42.2977V30.1208L47.1024 34.0048V29.224C47.1184 28.5856 47.5944 28.2872 48.0624 28.2872C48.5312 28.2872 49.008 28.5776 49.024 29.2312V52.488H51.4952L51.5832 52.2296C52.6656 49.1696 55.5808 47.1176 58.8272 47.1096L58.8352 47.1024ZM56.1056 14.3824C52.6896 15.7384 50.1544 18.7424 49.3224 22.4168L49.2184 22.8848H71.1416L71.0368 22.4168C70.2048 18.7424 67.6688 15.7384 64.2528 14.3816L64.084 14.3176L63.9224 14.4056C62.776 15.0427 61.4868 15.379 60.1752 15.3832C58.8639 15.3802 57.5747 15.044 56.4288 14.4064L56.2672 14.3168L56.0976 14.3816H56.1056V14.3824ZM60.184 1.9288C57.0024 1.9288 54.4096 4.5128 54.4096 7.68639C54.4096 10.86 57.0016 13.46 60.184 13.46C63.3656 13.46 65.9576 10.868 65.9576 7.68639C65.9576 4.5048 63.3656 1.9288 60.184 1.9288ZM3.64969 79.9759C2.68213 79.9742 1.75471 79.5891 1.07062 78.9048C0.386529 78.2206 0.001569 77.2931 8.84539e-05 76.3255V70.9319C8.84539e-05 69.2999 0.500888 65.3351 5.13608 63.5671L5.38648 63.4703V61.9679L5.26488 61.8559C5.16008 61.7583 5.05528 61.6375 4.95048 61.5239C3.44009 59.8519 2.68809 57.592 2.68809 54.7736C2.68809 50.5416 6.13608 47.0936 10.3761 47.0936C14.6153 47.0936 18.0633 50.5416 18.0633 54.7736C18.0633 57.6 17.3201 59.8527 15.8505 61.4759C15.7057 61.6367 15.6001 61.7583 15.4953 61.8551L15.3745 61.9679V63.4703L15.6249 63.5671C20.2601 65.3271 20.7609 69.3007 20.7609 70.9231V76.3175C20.7594 77.2852 20.3743 78.2129 19.6901 78.8971C19.0058 79.5814 18.0782 79.9664 17.1105 79.9679H3.64969V79.9759ZM14.4225 74.0159C14.6809 74.0159 14.9233 74.1055 15.0921 74.2583C15.2865 74.4279 15.3833 74.6703 15.3833 74.9855V78.0623H17.1193C18.0553 78.0623 18.8473 77.2703 18.8473 76.3343V70.9399C18.8473 69.5671 18.3953 66.2639 14.1801 65.1335C13.975 65.0791 13.7935 64.9588 13.6636 64.7912C13.5336 64.6235 13.4624 64.4177 13.4609 64.2055V63.2359L12.9529 63.4135C12.1609 63.6879 11.2969 63.8335 10.3849 63.8335C9.47288 63.8335 8.61688 63.6967 7.81688 63.4135L7.30808 63.2359V64.2047C7.30808 64.6415 7.01768 65.0207 6.58968 65.1335C2.37369 66.2639 1.92169 69.5671 1.92169 70.9399V76.3335C1.92169 77.2703 2.71369 78.0615 3.64969 78.0615H5.38568V74.9855C5.38568 74.6783 5.48328 74.4359 5.67688 74.2583C5.84648 74.1055 6.08888 74.0159 6.34728 74.0159C6.82328 74.0159 7.30728 74.3151 7.30728 74.9775V78.0535H13.4609V74.9775C13.4609 74.3151 13.9457 74.0159 14.4225 74.0159ZM10.3841 49.024C7.20248 49.024 4.61848 51.608 4.61848 54.7816C4.61848 57.0831 5.21608 58.9559 6.33848 60.1999C7.36408 61.3303 8.72008 61.9039 10.3841 61.9119C12.0481 61.9119 13.4041 61.3383 14.4297 60.1999C15.5521 58.9559 16.1497 57.0831 16.1497 54.7816C16.1497 51.608 13.5657 49.032 10.3841 49.024ZM0.960088 44.9864C0.701688 44.9864 0.459288 44.8896 0.281688 44.704C0.191018 44.616 0.119269 44.5105 0.0708458 44.3938C0.022422 44.2772 -0.00165612 44.1519 8.84539e-05 44.0256V23.8296C8.84539e-05 21.076 2.24489 18.8312 4.99848 18.8312H8.07528V17.0952C8.07528 14.3416 10.3201 12.0968 13.0817 12.0968H30.1849L35.2721 6.99279C35.4454 6.81748 35.68 6.71624 35.9265 6.71039C36.2089 6.71039 36.4513 6.80719 36.6289 6.99279C36.8145 7.17839 36.9113 7.42079 36.9113 7.67919V27.8672C36.9113 30.6208 34.6665 32.8656 31.9129 32.8656H28.8361V34.6016C28.8361 37.3632 26.5913 39.6 23.8297 39.6H6.72648L1.64009 44.696C1.46675 44.8713 1.23216 44.9725 0.985688 44.9784H0.961688V44.9864H0.960088ZM4.99768 20.7608C4.18199 20.7618 3.40001 21.0863 2.82323 21.6631C2.24645 22.2399 1.92195 23.0219 1.92089 23.8376V41.708L5.63608 37.9688C5.81368 37.7912 6.06328 37.6864 6.32168 37.6864H23.8369C24.6526 37.6853 25.4345 37.3608 26.0113 36.784C26.5881 36.2072 26.9126 35.4253 26.9137 34.6096V32.8736H13.0817C12.4236 32.8758 11.7716 32.7478 11.1632 32.497C10.5548 32.2462 10.002 31.8775 9.53667 31.4122C9.07134 30.9468 8.70266 30.3941 8.45185 29.7857C8.20104 29.1773 8.07306 28.5252 8.07528 27.8672V20.7608H4.99768ZM13.0809 14.0184C12.2652 14.0194 11.4832 14.3439 10.9064 14.9207C10.3296 15.4975 10.0051 16.2795 10.0041 17.0952V27.8672C10.0024 28.2728 10.081 28.6746 10.2354 29.0497C10.3899 29.4247 10.617 29.7654 10.9038 30.0522C11.1906 30.339 11.5313 30.5662 11.9064 30.7206C12.2814 30.875 12.6833 30.9537 13.0889 30.952H31.9209C32.7368 30.9475 33.518 30.6208 34.0941 30.043C34.6703 29.4652 34.9948 28.6831 34.9969 27.8672V9.99679L31.2825 13.744C31.1935 13.8333 31.0878 13.9042 30.9713 13.9527C30.8549 14.0011 30.7301 14.0262 30.6041 14.0264H13.0817L13.0809 14.0184ZM27.8825 23.4504C27.7561 23.4507 27.631 23.426 27.5142 23.3778C27.3975 23.3296 27.2914 23.2588 27.2021 23.1694C27.1128 23.08 27.042 22.9739 26.9939 22.8571C26.9458 22.7403 26.9212 22.6151 26.9217 22.4888C26.9217 21.956 27.3497 21.5288 27.8825 21.5288C28.4153 21.5288 28.8433 21.956 28.8433 22.4888C28.8433 23.0224 28.4145 23.4504 27.8825 23.4504ZM22.4969 23.4504C22.3705 23.4508 22.2452 23.4262 22.1284 23.378C22.0115 23.3299 21.9053 23.2591 21.816 23.1697C21.7266 23.0803 21.6558 22.9741 21.6076 22.8573C21.5594 22.7404 21.5348 22.6152 21.5353 22.4888C21.5353 21.956 21.9633 21.5288 22.4961 21.5288C23.0297 21.5288 23.4577 21.956 23.4577 22.4888C23.4577 23.0224 23.0297 23.4504 22.4969 23.4504ZM17.1105 23.4504C16.9841 23.4507 16.859 23.426 16.7422 23.3778C16.6255 23.3296 16.5194 23.2588 16.4301 23.1694C16.3408 23.08 16.2701 22.9739 16.2219 22.8571C16.1738 22.7403 16.1493 22.6151 16.1497 22.4888C16.1497 21.956 16.5777 21.5288 17.1097 21.5288C17.6433 21.5288 18.0713 21.956 18.0713 22.4888C18.0713 23.0224 17.6433 23.4504 17.1105 23.4504Z" fill="url(#paint0_linear_134_1880)"/>
</g>
</g>
<defs>
<linearGradient id="paint0_linear_134_1880" x1="1.97519" y1="-5.14223" x2="68.2921" y2="73.8962" gradientUnits="userSpaceOnUse">
<stop stop-color="#191825"/>
<stop offset="0.21" stop-color="#865DFF"/>
<stop offset="0.46" stop-color="#E384FF"/>
<stop offset="0.77" stop-color="#FFA3FD"/>
<stop offset="1" stop-color="#0AE2FF"/>
</linearGradient>
<clipPath id="clip0_134_1880">
<rect width="80" height="80" fill="white"/>
</clipPath>
</defs>
</svg>
