<svg width="72" height="80" viewBox="0 0 72 80" fill="none" xmlns="http://www.w3.org/2000/svg">
<path fill-rule="evenodd" clip-rule="evenodd" d="M47.1144 47.7144C48.0617 48.2319 49.1238 48.5031 50.2032 48.5032L50.1952 48.4952C51.2632 48.4952 52.3312 48.2232 53.2752 47.7144L57.0384 45.636C57.1528 45.5723 57.2535 45.4866 57.3345 45.3837C57.4155 45.2809 57.4753 45.163 57.5104 45.0368C57.5455 44.9107 57.5553 44.7789 57.5391 44.649C57.5229 44.5191 57.4811 44.3936 57.416 44.28C57.3267 44.1284 57.1995 44.0025 57.0469 43.9148C56.8944 43.827 56.7217 43.7803 56.5456 43.7792C56.3728 43.7792 56.2088 43.82 56.0528 43.9104L52.2816 45.9968C51.6223 46.3506 50.886 46.5369 50.1376 46.5392C49.3888 46.5409 48.6516 46.3543 47.9936 45.9968L32.9264 37.6256C32.2516 37.2258 31.6924 36.6574 31.3036 35.9762C30.9148 35.295 30.7098 34.5244 30.7088 33.74V14.7632C30.7181 13.9749 30.9338 13.2029 31.3344 12.5239C31.735 11.845 32.3065 11.2829 32.992 10.8936L48.06 2.5136C48.7195 2.16007 49.4558 1.97408 50.204 1.972C50.9432 1.972 51.6912 2.152 52.348 2.5136L67.3985 10.8688C68.1162 11.2395 68.7208 11.7967 69.1487 12.4819C69.5767 13.167 69.8122 13.9548 69.8305 14.7624V33.748C69.823 34.5389 69.6081 35.314 69.2073 35.9958C68.8065 36.6776 68.2338 37.2424 67.5465 37.6336L61.1633 41.1664C60.6953 41.4296 60.5144 42.0208 60.7688 42.4896C60.9416 42.8016 61.2705 42.9984 61.6313 42.9984C61.7961 42.9984 61.9513 42.9576 62.1001 42.8752L68.4921 39.3264C69.4841 38.7674 70.3111 37.9566 70.8894 36.9757C71.4677 35.9948 71.7768 34.8786 71.7857 33.74V14.7632C71.7863 13.6214 71.4802 12.5005 70.8992 11.5176C70.3183 10.5347 69.4838 9.72595 68.4833 9.176L53.424 0.7888C52.4761 0.272148 51.414 0.000974537 50.3344 0C49.2664 0 48.1984 0.2712 47.2544 0.7808L32.048 9.176C31.056 9.73479 30.2289 10.5455 29.6505 11.5262C29.072 12.507 28.7627 13.623 28.7536 14.7616V33.7312C28.7585 34.8739 29.0668 35.9947 29.647 36.9791C30.2273 37.9635 31.0586 38.776 32.056 39.3336L47.1144 47.7144ZM0 76.2864C0.000212091 77.2712 0.391534 78.2157 1.08792 78.9121C1.78431 79.6085 2.72876 79.9998 3.7136 80H11.928C12.4696 80 12.9056 79.5648 12.9056 79.0224C12.9056 78.48 12.4696 78.0448 11.928 78.0448H3.712C3.24592 78.0442 2.79911 77.8587 2.46961 77.529C2.14011 77.1994 1.95482 76.7525 1.9544 76.2864V16.036C1.95504 15.5699 2.14053 15.1231 2.47018 14.7936C2.79983 14.4641 3.24671 14.2788 3.7128 14.2784H24.3496C24.8912 14.2784 25.3264 13.8424 25.3264 13.3008C25.3264 12.7584 24.8912 12.3232 24.3496 12.3232H3.7136C2.7289 12.3234 1.78457 12.7146 1.08821 13.4108C0.391839 14.1071 0.000424145 15.0513 0 16.036V76.2864ZM16.4304 79.0224C16.4304 79.5648 16.8656 80 17.408 80H47.5336C48.5183 79.9996 49.4626 79.6082 50.1588 78.9118C50.855 78.2154 51.2462 77.2711 51.2464 76.2864V53.0128C51.2464 52.4704 50.8112 52.0352 50.2688 52.0352C49.7272 52.0352 49.2912 52.4704 49.2912 53.0128V76.2864C49.2908 76.7525 49.1055 77.1994 48.776 77.529C48.4465 77.8587 47.9997 78.0442 47.5336 78.0448H17.408C16.8656 78.0448 16.4304 78.48 16.4304 79.0224ZM25.6392 73.1568C25.5 73.1568 25.3688 73.1328 25.2456 73.0744L21.088 71.2424L16.948 73.0824C16.8281 73.1323 16.6995 73.1576 16.5696 73.1568C16.44 73.1575 16.3116 73.1322 16.192 73.0824L11.9608 71.2184L6.92561 72.7128C6.83521 72.7376 6.73601 72.7544 6.64561 72.7544C6.55968 72.7556 6.47402 72.7446 6.39121 72.7216C6.14126 72.6528 5.92855 72.4882 5.79928 72.2635C5.67 72.0389 5.63462 71.7722 5.7008 71.5216L7.45921 64.9576L5.5368 58.9856C5.47102 58.791 5.47102 58.5802 5.5368 58.3856L7.45121 52.4216L5.5368 46.4816C5.47102 46.287 5.47102 46.0762 5.5368 45.8816L7.48401 39.9176L5.5696 33.9616C5.50377 33.767 5.50377 33.5562 5.5696 33.3616L7.50001 27.3736L5.7424 20.8176C5.69302 20.6429 5.69302 20.4579 5.7424 20.2832C5.80387 20.0824 5.92779 19.9065 6.09613 19.7811C6.26447 19.6556 6.46846 19.5871 6.67841 19.5856C6.76881 19.5856 6.86801 19.6016 6.95841 19.6256L11.9696 21.1216L16.1264 19.3216C16.2496 19.2648 16.3808 19.24 16.5208 19.24C16.66 19.24 16.792 19.2648 16.9152 19.3224L21.072 21.1544L23.8568 19.9224C23.98 19.8728 24.1112 19.84 24.2432 19.84C24.6376 19.84 24.9904 20.0696 25.1472 20.432C25.2536 20.6696 25.2536 20.9408 25.1632 21.1872C25.0728 21.4336 24.8832 21.6224 24.6376 21.7296L21.4576 23.1016C21.3341 23.1576 21.1996 23.1854 21.064 23.1832C20.924 23.1832 20.792 23.1592 20.6696 23.1016L16.512 21.2696L12.372 23.1096C12.2896 23.1336 12.1744 23.1584 12.068 23.1584C11.9608 23.1584 11.8464 23.1424 11.74 23.1016L8.02561 22.0088L9.41441 27.16C9.47187 27.3444 9.47187 27.542 9.41441 27.7264L7.50001 33.6744L9.41441 39.6304C9.48025 39.825 9.48025 40.0358 9.41441 40.2304L7.50001 46.1944L9.41441 52.1504C9.48025 52.345 9.48025 52.5558 9.41441 52.7504L8.57681 55.3464L9.22481 55.74L18.0976 46.868C18.2872 46.6792 18.5336 46.58 18.796 46.58C19.0592 46.58 19.3056 46.6872 19.4944 46.868L43.4008 70.692L41.9384 65.2616C41.881 65.0799 41.881 64.8849 41.9384 64.7032L43.8528 58.6896L41.8976 52.7088C41.8319 52.5142 41.8319 52.3034 41.8976 52.1088L42.448 50.4168C42.5149 50.2174 42.643 50.0441 42.8141 49.9217C42.9851 49.7993 43.1905 49.7341 43.4008 49.7352C43.5591 49.7355 43.7151 49.7733 43.856 49.8453C43.9969 49.9174 44.1188 50.0218 44.2117 50.1499C44.3046 50.2781 44.3659 50.4264 44.3906 50.5828C44.4152 50.7391 44.4026 50.8991 44.3536 51.0496L43.9016 52.4296L45.816 58.3856C45.8819 58.5747 45.8819 58.7805 45.816 58.9696L43.8448 65.0152L45.6024 71.5384C45.652 71.7112 45.644 71.9 45.6024 72.072C45.5411 72.2729 45.4173 72.449 45.2489 72.5746C45.0805 72.7002 44.8765 72.7688 44.6664 72.7704C44.5752 72.7704 44.4768 72.7544 44.3864 72.7296L39.3752 71.2344L35.136 73.0992C34.8797 73.2011 34.5935 73.1982 34.3392 73.0912L30.1992 71.2592L26.0584 73.0992C25.936 73.1509 25.8049 73.1788 25.672 73.1816L25.6392 73.1568ZM30.1744 69.1888C30.3136 69.1888 30.4456 69.2128 30.5688 69.2712L34.7256 71.1032L39.0632 69.1888L18.788 48.9056L7.89441 59.8976L9.43041 64.6704C9.48001 64.8432 9.48001 65.04 9.43041 65.2208L8.04241 70.3968L11.7472 69.296C11.8792 69.2464 11.9856 69.2296 12.1008 69.2296C12.216 69.2296 12.3224 69.2456 12.4288 69.2872L16.5448 71.1032L20.6856 69.2792C20.8088 69.2216 20.9408 69.1968 21.08 69.1968C21.22 69.1968 21.3512 69.2216 21.4744 69.2792L25.6312 71.1112L29.788 69.2792C29.9112 69.2216 30.0432 69.1968 30.1744 69.1968V69.1888ZM43.4256 30.7088C43.0888 30.7088 42.7768 30.536 42.596 30.2488L36.196 21.7128V29.7312C36.196 30.2736 35.7608 30.7088 35.2184 30.7088C35.0899 30.7092 34.9626 30.6842 34.8438 30.6352C34.725 30.5863 34.6171 30.5143 34.5262 30.4234C34.4354 30.3325 34.3634 30.2246 34.3144 30.1058C34.2654 29.987 34.2404 29.8597 34.2408 29.7312V18.78C34.2408 18.2376 34.676 17.8024 35.2184 17.8024C35.5632 17.8024 35.8672 17.9752 36.048 18.2624L42.448 26.7984V18.78C42.448 18.2376 42.8832 17.8024 43.4256 17.8024C43.968 17.8024 44.4032 18.2376 44.4032 18.78V29.7312C44.4032 30.2736 43.968 30.7088 43.4256 30.7088ZM47.9192 29.7312C47.9192 30.2736 48.3552 30.7088 48.8968 30.7088C49.4392 30.7088 49.8752 30.2736 49.8752 29.7312V25.2288H54.3768C54.9192 25.2288 55.3544 24.7936 55.3544 24.2512C55.3544 23.7096 54.9192 23.2736 54.3768 23.2736H49.8752V19.7576H54.3768C54.9192 19.7576 55.3544 19.3224 55.3544 18.78C55.3544 18.2376 54.9192 17.8024 54.3768 17.8024H48.8968C48.3552 17.8024 47.9192 18.2376 47.9192 18.78V29.7312ZM62.5913 30.7088C62.4628 30.7091 62.3356 30.684 62.2169 30.635C62.0982 30.586 61.9903 30.514 61.8996 30.4231C61.8088 30.3323 61.7369 30.2244 61.6879 30.1056C61.639 29.9869 61.614 29.8596 61.6144 29.7312V19.7576H59.856C59.7275 19.758 59.6002 19.733 59.4814 19.684C59.3626 19.6351 59.2547 19.5631 59.1638 19.4722C59.073 19.3813 59.001 19.2734 58.952 19.1546C58.903 19.0358 58.878 18.9085 58.8784 18.78C58.8784 18.2376 59.3136 17.8024 59.856 17.8024H65.3361C65.8777 17.8024 66.3137 18.2376 66.3137 18.78C66.3137 19.3224 65.8777 19.7576 65.3361 19.7576H63.5777V29.7312C63.5777 30.2736 63.1425 30.7088 62.6001 30.7088H62.5913ZM13.6952 36.5744C13.6952 39.3752 15.9784 41.6592 18.78 41.6592C21.5816 41.6592 23.8648 39.3752 23.8648 36.5744C23.8648 33.7728 21.5816 31.4888 18.78 31.4888C15.9784 31.4888 13.6952 33.7728 13.6952 36.5744ZM15.6504 36.5744C15.6515 35.7446 15.9815 34.9491 16.5682 34.3623C17.1548 33.7755 17.9502 33.4453 18.78 33.444C19.6099 33.4451 20.4055 33.7752 20.9924 34.362C21.5792 34.9489 21.9094 35.7445 21.9104 36.5744C21.9091 37.4042 21.5789 38.1996 20.9921 38.7862C20.4053 39.3729 19.6098 39.7029 18.78 39.704C17.9502 39.7029 17.1548 39.3729 16.5679 38.7862C15.9811 38.1996 15.6517 37.4042 15.6504 36.5744Z" fill="url(#paint0_linear_134_1879)"/>
<defs>
<linearGradient id="paint0_linear_134_1879" x1="1.77239" y1="-5.14275" x2="68.9688" y2="66.7141" gradientUnits="userSpaceOnUse">
<stop stop-color="#191825"/>
<stop offset="0.21" stop-color="#865DFF"/>
<stop offset="0.46" stop-color="#E384FF"/>
<stop offset="0.77" stop-color="#FFA3FD"/>
<stop offset="1" stop-color="#0AE2FF"/>
</linearGradient>
</defs>
</svg>
