<svg width="80" height="80" viewBox="0 0 80 80" fill="none" xmlns="http://www.w3.org/2000/svg">
<path d="M67.8985 80C65.0866 79.9982 62.3633 79.0166 60.1969 77.224C60.121 77.1755 60.053 77.1156 59.9953 77.0464C57.3153 74.712 55.7857 71.38 55.7857 67.8712C55.7857 65.0624 56.7761 62.3256 58.5625 60.1608L58.6993 59.992L55.1585 56.4104L54.9889 56.5632C54.5038 57.0016 53.9993 57.4181 53.4769 57.8112C53.4033 57.8752 53.3393 57.9232 53.2833 57.9552C49.8708 60.4543 45.8045 61.9059 41.5809 62.1328L41.3553 62.1488V65.7784L41.5569 65.8104C43.1892 66.0754 44.6735 66.914 45.743 68.1754C46.8124 69.4368 47.3969 71.0383 47.3913 72.692C47.3913 76.5392 44.2609 79.6704 40.4137 79.6704C36.5665 79.6704 33.4361 76.5392 33.4361 72.692C33.4307 71.0383 34.0154 69.4369 35.085 68.1757C36.1545 66.9144 37.6389 66.0761 39.2713 65.8112L39.4721 65.7792V62.1488L39.2465 62.1328C35.0303 61.9081 30.9703 60.4625 27.5609 57.972C27.3193 57.8352 27.1017 57.6496 26.9009 57.4728L26.6833 57.288C26.3937 57.0464 26.1041 56.8048 25.8225 56.5552L25.6529 56.4024L22.1201 59.9352L22.2561 60.1048C24.0475 62.2754 25.0293 65.0008 25.0337 67.8152C25.0337 74.4952 19.6009 79.9352 12.9209 79.9352C6.24085 79.9352 0.800049 74.512 0.800049 67.832C0.800049 61.152 6.23205 55.7112 12.9121 55.7112C15.7137 55.7112 18.4497 56.6928 20.6153 58.4872L20.7833 58.6248L24.3169 55.0912L24.1649 54.9224C20.8321 51.212 18.8529 46.4472 18.5953 41.4904L18.5793 41.2648H14.9569L14.9249 41.4656C14.6619 43.0996 13.8241 44.5861 12.5625 45.6573C11.3009 46.7286 9.6983 47.3142 8.04325 47.3088C4.19605 47.3088 1.06565 44.1776 1.06565 40.3312C1.06565 36.4832 4.19605 33.3528 8.04325 33.3528C9.69709 33.3473 11.2987 33.9318 12.5601 35.0014C13.8215 36.071 14.66 37.5555 14.9249 39.188L14.9569 39.3888H18.5785L18.5945 39.164C18.8664 34.185 20.8315 29.4484 24.1641 25.7392L24.3169 25.5704L20.6953 21.9488L20.5265 22.0608C18.4978 23.4881 16.0773 24.2529 13.5969 24.2504C10.7744 24.2494 8.04122 23.2614 5.87045 21.4576C5.79845 21.4096 5.75045 21.3616 5.70165 21.3128C3.02165 18.9784 1.49205 15.6384 1.49205 12.1208C1.49205 5.44 6.92405 0 13.6049 0C20.2849 0 25.7169 5.44 25.7169 12.12C25.7169 15.276 24.5025 18.2696 22.2969 20.5472L22.1281 20.716L25.6369 24.2256L25.8065 24.072C29.5081 20.7408 34.2729 18.76 39.2305 18.5032L39.4561 18.4872V14.864L39.2545 14.832C37.621 14.5665 36.136 13.7267 35.0664 12.4639C33.9969 11.2011 33.4131 9.59806 33.4201 7.9432C33.4201 4.0952 36.5505 0.9648 40.3977 0.9648C44.2449 0.9648 47.3753 4.096 47.3753 7.9432C47.3796 9.59748 46.7948 11.1993 45.7255 12.4615C44.6563 13.7238 43.1725 14.5642 41.5401 14.832L41.3393 14.864V18.4944L41.5649 18.5104C45.0332 18.697 48.4073 19.7067 51.4081 21.456C52.684 22.2056 53.881 23.082 54.9809 24.072L55.1505 24.224L58.6353 20.6992L58.4745 20.5304C56.2849 18.2528 55.0777 15.2744 55.0777 12.128C55.0777 5.448 60.5097 0.008 67.1897 0.008C70.4177 0.008 73.4601 1.2712 75.7537 3.5648C76.8824 4.68642 77.7774 6.02081 78.3868 7.4907C78.9962 8.96059 79.308 10.5368 79.3041 12.128C79.3041 15.6448 77.7745 18.9848 75.1025 21.2952C75.0385 21.3592 74.9905 21.4072 74.9337 21.4392C72.7583 23.2469 70.0197 24.2378 67.1913 24.2408C64.6881 24.2408 62.2817 23.476 60.2297 22.0352L60.0601 21.9152L56.4713 25.5448L56.6233 25.7128C57.6081 26.807 58.4817 27.9963 59.2313 29.2632C59.3033 29.3912 59.3761 29.512 59.4489 29.6408L59.4969 29.7296C59.7465 30.18 59.5849 30.752 59.1345 31.0096C58.9985 31.0896 58.8369 31.1296 58.6761 31.1296C58.3385 31.1296 58.0241 30.9456 57.8553 30.6472L57.7993 30.5512C57.7345 30.4376 57.6785 30.3328 57.6137 30.2288C54.0321 24.128 47.4329 20.3456 40.3817 20.3456C29.3721 20.3456 20.4225 29.3032 20.4225 40.3216C20.4225 45.8576 22.6441 51.0176 26.6841 54.832L27.0385 55.1704L27.0945 54.6872C27.5777 50.2288 31.3361 49.2152 34.3625 48.4096L34.9497 48.2488C35.2233 48.1768 35.4489 47.9104 35.6745 47.42L35.7545 47.2344L35.5857 47.1224C32.6321 45.0936 30.5633 41.7056 30.5633 38.872V36.152C30.5633 33.7056 31.1265 31.5568 32.2377 29.7696C32.4065 29.496 32.7041 29.3272 33.0345 29.3272C33.2113 29.3272 33.3801 29.3752 33.5249 29.472C33.9601 29.7456 34.0969 30.3248 33.8233 30.76C33.1313 31.8704 32.6961 33.1664 32.5193 34.6232L32.4713 35.0576L32.8649 34.8728C33.3721 34.6312 33.7025 34.2928 34.0489 33.9392C34.5713 33.408 35.2153 32.7472 36.3505 32.7472C36.6401 32.7472 36.9457 32.7872 37.2761 32.8768C37.7265 32.9888 38.1049 33.0936 38.4345 33.1824C39.4649 33.456 39.9641 33.5928 40.3825 33.5928C40.8009 33.5928 41.3081 33.456 42.2977 33.1904C42.6361 33.1024 43.0305 32.9976 43.4897 32.8768C43.8113 32.796 44.1249 32.748 44.4145 32.748C45.5497 32.748 46.1929 33.408 46.7161 33.9392C47.0625 34.2928 47.3921 34.6312 47.9001 34.8728L48.2937 35.0568L48.2377 34.6232C47.6097 29.488 43.8433 27.1216 40.3817 27.0576C39.249 27.0782 38.1333 27.336 37.1065 27.8144C36.9798 27.8711 36.8428 27.9011 36.7041 27.9024C36.3425 27.9024 36.0121 27.6936 35.8593 27.3632C35.753 27.139 35.7399 26.8818 35.8228 26.6479C35.9057 26.414 36.0779 26.2225 36.3017 26.1152C37.5726 25.5201 38.9546 25.1996 40.3577 25.1744C42.9657 25.2144 45.3641 26.2288 47.1513 28.0152C49.1473 30.0192 50.2017 32.828 50.2017 36.136V38.856C50.2017 41.6896 48.1409 45.0776 45.1793 47.1056L45.0105 47.2184L45.0905 47.4032C45.3161 47.8944 45.5417 48.16 45.8153 48.2328L46.4025 48.3936C49.4209 49.2064 53.1785 50.2128 53.6697 54.6712L53.7257 55.1544L54.0809 54.816C58.1129 51.0008 60.3425 45.8424 60.3425 40.3048C60.3425 38.6792 60.1489 37.0776 59.7705 35.5328C59.7121 35.2916 59.7512 35.0372 59.8792 34.8246C60.0073 34.6121 60.214 34.4587 60.4545 34.3976C60.5265 34.3816 60.6081 34.3736 60.6801 34.3736C61.1145 34.3736 61.4849 34.6632 61.5897 35.0896C61.9113 36.4016 62.1129 37.7616 62.1849 39.1456L62.2009 39.3712H65.8233L65.8553 39.1704C66.1202 37.5379 66.9587 36.0534 68.2201 34.9838C69.4815 33.9142 71.0831 33.3297 72.7369 33.3352C76.5833 33.3352 79.7145 36.4656 79.7145 40.3128C79.7145 44.1608 76.5833 47.2912 72.7369 47.2912C71.0819 47.2964 69.4794 46.7107 68.2178 45.6395C66.9562 44.5683 66.1184 43.082 65.8553 41.448L65.8233 41.2464H62.2001L62.1841 41.472C61.9076 46.456 59.9402 51.1968 56.6065 54.912L56.4545 55.0816L59.9953 58.6632L60.1641 58.5264C62.3333 56.7393 65.0559 55.7609 67.8665 55.7584C71.0937 55.7584 74.1361 57.0216 76.4297 59.3152C77.5583 60.4369 78.4531 61.7713 79.0624 63.2412C79.6717 64.7111 79.9833 66.2872 79.9793 67.8784C79.9772 69.6145 79.6025 71.3298 78.8804 72.9086C78.1583 74.4874 77.1057 75.8927 75.7937 77.0296C75.7217 77.1096 75.6577 77.1656 75.5929 77.2064C73.4192 79.0041 70.6872 79.9885 67.8665 79.9904L67.8985 80ZM64.7361 71.0184C63.8779 71.5252 63.1515 72.2274 62.6159 73.0678C62.0803 73.9083 61.7506 74.8633 61.6537 75.8552L61.6377 75.9912L61.7425 76.0728C63.5119 77.4131 65.6716 78.1366 67.8913 78.1328C70.1289 78.1328 72.2537 77.4248 74.0401 76.0728L74.1449 75.992L74.1289 75.8552C74.0341 74.8637 73.7061 73.9087 73.1718 73.0681C72.6375 72.2275 71.912 71.5251 71.0545 71.0184L70.9337 70.9464L70.8137 71.0184C69.9343 71.5496 68.9266 71.8306 67.8993 71.8312C66.8722 71.8305 65.8648 71.5495 64.9857 71.0184L64.8657 70.9464L64.7449 71.0184H64.7361ZM9.75045 70.9624C8.89227 71.4683 8.16622 72.1705 7.63182 73.0112C7.09741 73.852 6.76987 74.8074 6.67605 75.7992L6.66005 75.9352L6.76405 76.016C8.53353 77.3567 10.6936 78.0806 12.9137 78.0768C15.1513 78.0768 17.2761 77.368 19.0625 76.016L19.1665 75.936L19.1505 75.7992C19.0559 74.8065 18.7272 73.8505 18.1914 73.0095C17.6555 72.1685 16.9278 71.4667 16.0681 70.9616L15.9481 70.8896L15.8273 70.9616C14.9486 71.4937 13.9409 71.7748 12.9137 71.7744C11.8841 71.7737 10.8741 71.4928 9.99205 70.9616L9.87125 70.8896L9.75125 70.9616L9.75045 70.9624ZM40.4065 67.5896C39.0534 67.59 37.7558 68.1277 36.799 69.0845C35.8422 70.0413 35.3045 71.3389 35.3041 72.692C35.3043 74.0453 35.8419 75.343 36.7987 76.3C37.7555 77.257 39.0532 77.7948 40.4065 77.7952C41.7593 77.7933 43.0561 77.255 44.0126 76.2984C44.9691 75.3417 45.5072 74.0448 45.5089 72.692C45.507 71.3393 44.9688 70.0426 44.0123 69.0862C43.0558 68.1297 41.7591 67.5915 40.4065 67.5896ZM67.8993 57.6336C62.2497 57.6336 57.6617 62.2296 57.6617 67.8792C57.6617 70.1168 58.3705 72.2416 59.7225 74.028L60.0041 74.3984L60.1489 73.956C60.6967 72.262 61.778 70.7908 63.2313 69.7624L63.4329 69.6264L63.2961 69.4248C62.6235 68.474 62.2634 67.3375 62.2657 66.1728C62.2665 64.6726 62.8629 63.234 63.9237 62.1732C64.9845 61.1124 66.4231 60.516 67.9233 60.5152C69.4237 60.5158 70.8624 61.1121 71.9234 62.1729C72.9844 63.2338 73.5808 64.6724 73.5817 66.1728C73.584 67.3375 73.2239 68.474 72.5513 69.4248L72.4153 69.6256L72.6153 69.7624C74.0687 70.7926 75.1479 72.2672 75.6905 73.964L75.8345 74.4064L76.1169 74.036C77.4571 72.2666 78.1807 70.1069 78.1769 67.8872C78.1769 62.2376 73.5817 57.6416 67.9401 57.6416L67.8993 57.6336ZM12.9137 60.4664C16.0281 60.4664 18.5713 63.0024 18.5713 66.1248C18.5736 67.2891 18.2138 68.4253 17.5417 69.376L17.4049 69.5776L17.6057 69.7136C19.059 70.742 20.1403 72.2132 20.6881 73.9072L20.8329 74.3504L21.1145 73.98C22.455 72.2107 23.1789 70.051 23.1753 67.8312C23.1753 62.1808 18.5793 57.5856 12.9377 57.5856C7.29605 57.5856 2.70005 62.1808 2.70005 67.8312C2.70005 70.068 3.40885 72.1928 4.75285 73.98L5.03445 74.3504L5.17845 73.9072C5.72442 72.2123 6.80652 70.7408 8.26165 69.7144L8.46325 69.5776L8.32565 69.376C7.65355 68.4253 7.29374 67.2891 7.29605 66.1248C7.29669 64.6244 7.89293 63.1857 8.95378 62.1247C10.0146 61.0637 11.4533 60.4672 12.9537 60.4664H12.9137ZM67.8993 62.3984C66.8967 62.4001 65.9356 62.7991 65.2266 63.5081C64.5176 64.2171 64.1186 65.1782 64.1169 66.1808C64.1184 67.1836 64.5173 68.1449 65.2263 68.854C65.9353 69.5632 66.8965 69.9623 67.8993 69.964C68.9022 69.9625 69.8636 69.5635 70.5728 68.8543C71.282 68.1451 71.681 67.1837 71.6825 66.1808C71.6808 65.178 71.2816 64.2168 70.5725 63.5078C69.8634 62.7988 68.9021 62.3999 67.8993 62.3984ZM12.9137 62.3424C11.911 62.3441 10.9499 62.7431 10.241 63.4521C9.53199 64.1611 9.13295 65.1222 9.13125 66.1248C9.13295 67.1274 9.53199 68.0885 10.241 68.7975C10.9499 69.5065 11.911 69.9055 12.9137 69.9072C13.9163 69.9055 14.8774 69.5065 15.5863 68.7975C16.2953 68.0885 16.6944 67.1274 16.6961 66.1248C16.6944 65.1222 16.2953 64.1611 15.5863 63.4521C14.8774 62.7431 13.9163 62.3441 12.9137 62.3424ZM33.4521 50.616C30.5865 51.4928 28.9289 52.6032 28.9289 55.6704V56.66L29.0329 56.732C32.368 59.0596 36.3386 60.3045 40.4057 60.2976C44.4937 60.2976 48.4217 59.0664 51.7777 56.732L51.8825 56.66V55.6704C51.8825 52.6032 50.2249 51.5008 47.3593 50.616L47.2553 50.584L42.1033 53.6016C41.4681 54.012 40.9289 54.2056 40.4057 54.2056C39.8825 54.2056 39.3433 54.02 38.7153 53.6096L33.5569 50.5832L33.4521 50.616ZM37.3233 48.3296C37.0417 48.9016 36.7113 49.328 36.3089 49.6336L36.0193 49.8512L39.6737 51.992C39.9793 52.1928 40.1801 52.3216 40.4057 52.3216C40.6313 52.3216 40.8241 52.1936 41.0977 52.016L44.7921 49.8512L44.5025 49.6336C44.1001 49.328 43.7697 48.9016 43.4881 48.3296L43.3921 48.1288L42.9569 48.2976C42.0313 48.644 41.2185 48.8048 40.4057 48.8048C39.5929 48.8048 38.7801 48.644 37.8537 48.2976L37.4681 48.1456L37.3313 48.3296H37.3233ZM36.3897 34.624C36.0273 34.624 35.8345 34.8248 35.4161 35.2512C34.8689 35.8152 34.1121 36.5792 32.6473 36.9256L32.4625 36.9656V38.8568C32.4625 41.6984 35.3433 45.3608 38.5145 46.5352C39.2305 46.8008 39.8345 46.9296 40.4137 46.9296C40.9929 46.9296 41.5969 46.8096 42.3129 46.5432C45.4841 45.368 48.3657 41.7144 48.3657 38.8648V36.9736L48.1801 36.9336C46.7161 36.5872 45.9593 35.8232 45.4121 35.2592C44.9849 34.8248 44.7921 34.632 44.4297 34.632C44.2857 34.632 44.1321 34.664 43.9953 34.704C43.5449 34.8248 43.1585 34.9216 42.8201 35.0104C41.7017 35.308 41.0817 35.4768 40.4137 35.4768C39.7457 35.4768 39.1337 35.308 38.0153 35.0104C37.6617 34.9136 37.2833 34.8168 36.8401 34.696C36.699 34.6532 36.553 34.629 36.4057 34.624H36.3897ZM72.7601 35.2192C71.4068 35.2194 70.1091 35.757 69.1521 36.7138C68.1951 37.6707 67.6573 38.9684 67.6569 40.3216C67.6571 41.675 68.1948 42.9729 69.1518 43.9299C70.1088 44.8869 71.4067 45.4246 72.7601 45.4248C75.5761 45.4248 77.8625 43.1312 77.8625 40.3216C77.8625 37.5136 75.5769 35.2192 72.7601 35.2192ZM8.04325 35.2192C6.69014 35.2196 5.39257 35.7573 4.43578 36.7141C3.47898 37.6709 2.94127 38.9685 2.94085 40.3216C2.94106 41.6749 3.47868 42.9726 4.43549 43.9296C5.39231 44.8866 6.69 45.4244 8.04325 45.4248C9.39619 45.4231 10.6932 44.8849 11.6499 43.9282C12.6066 42.9716 13.1448 41.6745 13.1465 40.3216C13.1446 38.9688 12.6063 37.672 11.6496 36.7155C10.693 35.759 9.39605 35.2209 8.04325 35.2192ZM64.0433 15.2592C63.1846 15.7647 62.4581 16.4669 61.9236 17.3078C61.3892 18.1488 61.062 19.1047 60.9689 20.0968L60.9529 20.2328L61.0569 20.3136C62.8264 21.6543 64.9865 22.3782 67.2065 22.3744C69.4441 22.3744 71.5689 21.6656 73.3553 20.3136L73.4593 20.2336L73.4433 20.0968C73.3477 19.1055 73.0195 18.1508 72.4854 17.3102C71.9513 16.4696 71.2265 15.7669 70.3697 15.2592L70.2489 15.1872L70.1281 15.2592C69.249 15.7903 68.2416 16.0713 67.2145 16.072C66.1874 16.0713 65.18 15.7903 64.3009 15.2592L64.1809 15.1872L64.0593 15.2592H64.0433ZM10.4417 15.2592C9.58203 15.7644 8.8545 16.4663 8.3188 17.3072C7.78311 18.1482 7.45453 19.1042 7.36005 20.0968L7.34405 20.2328L7.44805 20.3136C9.21753 21.6543 11.3776 22.3782 13.5977 22.3744C15.8353 22.3744 17.9601 21.6656 19.7465 20.3136L19.8505 20.2336L19.8345 20.0968C19.7399 19.1042 19.4113 18.1482 18.8756 17.3073C18.3399 16.4663 17.6124 15.7644 16.7529 15.2592L16.6321 15.1872L16.5113 15.2592C15.6327 15.7917 14.625 16.0733 13.5977 16.0733C12.5703 16.0733 11.5626 15.7917 10.6841 15.2592L10.5641 15.1872L10.4425 15.2592H10.4417ZM13.6049 4.7568C16.7193 4.7568 19.2625 7.292 19.2625 10.4144C19.2648 11.5787 18.905 12.7149 18.2329 13.6656L18.0961 13.8672L18.2969 14.004C19.7502 15.0324 20.8315 16.5036 21.3793 18.1976L21.5241 18.64L21.8057 18.2696C23.1462 16.5003 23.8701 14.3406 23.8665 12.1208C23.8665 6.4712 19.2713 1.8752 13.6289 1.8752C7.98725 1.8752 3.36805 6.472 3.36805 12.1208C3.36805 14.3584 4.07685 16.4832 5.42885 18.2696L5.71045 18.64L5.85445 18.1976C6.40246 16.5035 7.4841 15.0323 8.93765 14.004L9.13925 13.8672L9.00245 13.6656C8.33002 12.715 7.96992 11.5788 7.97205 10.4144C7.9729 8.91417 8.56924 7.47563 9.63006 6.41481C10.6909 5.35399 12.1294 4.75765 13.6297 4.7568H13.6049ZM67.2065 4.7568C70.3209 4.7568 72.8649 7.292 72.8649 10.4144C72.8692 11.5804 72.5058 12.718 71.8265 13.6656L71.6897 13.8592L71.8905 13.996C73.3436 15.0242 74.425 16.4951 74.9729 18.1888L75.1177 18.632L75.3993 18.2616C76.7398 16.4923 77.4637 14.3326 77.4601 12.1128C77.4601 6.4624 72.8641 1.8672 67.2225 1.8672C61.5809 1.8672 56.9849 6.4624 56.9849 12.1128C56.9849 14.3504 57.6937 16.4752 59.0457 18.2616L59.3273 18.632L59.4721 18.1888C60.02 16.4951 61.1013 15.0242 62.5545 13.996L62.7561 13.8592L62.6193 13.6576C61.9469 12.707 61.5868 11.5708 61.5889 10.4064C61.5897 8.90617 62.1861 7.46763 63.2469 6.40681C64.3077 5.34599 65.7463 4.74965 67.2465 4.7488L67.2065 4.7568ZM67.2065 6.632C66.2039 6.63369 65.2428 7.03274 64.5338 7.74171C63.8248 8.45068 63.4258 9.41176 63.4241 10.4144C63.4256 11.4172 63.8245 12.3785 64.5335 13.0876C65.2425 13.7968 66.2037 14.1959 67.2065 14.1976C68.2093 14.1959 69.1705 13.7968 69.8795 13.0876C70.5885 12.3785 70.9874 11.4172 70.9889 10.4144C70.9872 9.41176 70.5882 8.45068 69.8792 7.74171C69.1702 7.03274 68.2091 6.63369 67.2065 6.632ZM13.6049 6.632C12.6022 6.63369 11.6411 7.03274 10.9322 7.74171C10.2232 8.45068 9.82415 9.41176 9.82245 10.4144C9.82394 11.4172 10.2229 12.3785 10.9319 13.0876C11.6409 13.7968 12.6021 14.1959 13.6049 14.1976C14.6076 14.1959 15.5688 13.7968 16.2778 13.0876C16.9868 12.3785 17.3858 11.4172 17.3873 10.4144C17.3856 9.41176 16.9865 8.45068 16.2775 7.74171C15.5686 7.03274 14.6075 6.63369 13.6049 6.632ZM40.4057 2.84C39.0524 2.84042 37.7547 3.37824 36.7979 4.33521C35.8411 5.29218 35.3035 6.58995 35.3033 7.9432C35.3037 9.29631 35.8414 10.5939 36.7982 11.5507C37.755 12.5075 39.0526 13.0452 40.4057 13.0456C41.7583 13.0437 43.055 12.5055 44.0115 11.549C44.968 10.5926 45.5062 9.29586 45.5081 7.9432C45.5064 6.59041 44.9683 5.29349 44.0118 4.33685C43.0553 3.3802 41.7585 2.84191 40.4057 2.84Z" fill="url(#paint0_linear_134_1877)"/>
<defs>
<linearGradient id="paint0_linear_134_1877" x1="2.75499" y1="-5.14275" x2="69.1951" y2="73.223" gradientUnits="userSpaceOnUse">
<stop stop-color="#191825"/>
<stop offset="0.21" stop-color="#865DFF"/>
<stop offset="0.46" stop-color="#E384FF"/>
<stop offset="0.77" stop-color="#FFA3FD"/>
<stop offset="1" stop-color="#0AE2FF"/>
</linearGradient>
</defs>
</svg>
