<svg width="80" height="80" viewBox="0 0 80 80" fill="none" xmlns="http://www.w3.org/2000/svg">
<mask id="mask0_134_1891" style="mask-type:luminance" maskUnits="userSpaceOnUse" x="0" y="0" width="80" height="80">
<path d="M0 0H80V80H0V0Z" fill="white"/>
</mask>
<g mask="url(#mask0_134_1891)">
<path fill-rule="evenodd" clip-rule="evenodd" d="M12.06 9.65683C10.4113 10.8374 9.16963 12.5006 8.50641 14.4168C8.33803 14.8167 8.05542 15.158 7.69396 15.398C7.33251 15.638 6.90828 15.766 6.47441 15.766C6.04053 15.766 5.61631 15.638 5.25485 15.398C4.89339 15.158 4.61078 14.8167 4.4424 14.4168C3.77901 12.5004 2.53706 10.8372 0.888002 9.65683C0.612327 9.45046 0.388539 9.18269 0.234397 8.87475C0.080255 8.56681 0 8.22719 0 7.88283C0 7.53847 0.080255 7.19884 0.234397 6.89091C0.388539 6.58297 0.612327 6.3152 0.888002 6.10883C2.53698 4.92905 3.77896 3.26637 4.4424 1.35042C4.6105 0.950259 4.89301 0.608633 5.2545 0.368394C5.61599 0.128156 6.04037 0 6.47441 0C6.90844 0 7.33282 0.128156 7.69431 0.368394C8.0558 0.608633 8.33831 0.950259 8.50641 1.35042C9.1693 3.26687 10.411 4.93015 12.06 6.11043C12.3354 6.31683 12.5589 6.58452 12.7128 6.89231C12.8668 7.20009 12.9469 7.53949 12.9469 7.88363C12.9469 8.22777 12.8668 8.56717 12.7128 8.87495C12.5589 9.18273 12.3354 9.45043 12.06 9.65683ZM2.0096 8.14883C3.9409 9.53664 5.40011 11.4834 6.19041 13.7264V13.724C6.21213 13.7816 6.25083 13.8313 6.3014 13.8664C6.35196 13.9016 6.41201 13.9205 6.47358 13.9208C6.53515 13.9211 6.59535 13.9026 6.64622 13.8679C6.69708 13.8332 6.7362 13.7839 6.75841 13.7264C7.54854 11.4835 9.00745 9.5368 10.9384 8.14883C11.1336 7.95523 11.1328 7.81443 10.9384 7.62083C9.00713 6.23216 7.5482 4.28459 6.75841 2.04083C6.73644 1.9833 6.69753 1.93381 6.64681 1.89889C6.5961 1.86397 6.53598 1.84527 6.47441 1.84527C6.41283 1.84527 6.35271 1.86397 6.302 1.89889C6.25128 1.93381 6.21237 1.9833 6.19041 2.04083C5.40002 4.28406 3.94084 6.23102 2.0096 7.61923C1.8144 7.81363 1.8144 7.95443 2.0096 8.14723V8.14883ZM53.408 19.8824C53.7467 19.3658 53.9687 18.7817 54.0587 18.1705C54.1488 17.5594 54.1046 16.9361 53.9294 16.3437C53.7541 15.7514 53.4519 15.2044 53.0439 14.7406C52.6358 14.2769 52.1317 13.9076 51.5664 13.6584C52.7456 11.2616 54.0784 8.47843 54.6328 7.04003C56.3208 2.89603 51.672 -1.45038 47.9664 1.18722C46.9728 1.89363 43.9344 2.86323 43.3632 1.44562C42.6048 -0.434376 37.4088 -0.434376 36.6496 1.44562C36.0768 2.86323 33.0416 1.89443 32.0472 1.18722C28.3392 -1.44478 23.6984 2.89523 25.38 7.03843C25.868 8.30963 26.9656 10.648 28.0272 12.8384L21.8928 10.056C21.0772 9.68611 20.1481 9.65533 19.3098 9.97046C18.4715 10.2856 17.7927 10.9208 17.4228 11.7364C17.0529 12.552 17.0221 13.4812 17.3372 14.3195C17.6524 15.1577 18.2876 15.8365 19.1032 16.2064L22.9112 17.932L16.5688 20.228C16.1206 20.3831 15.7076 20.6257 15.354 20.9418C15.0003 21.2579 14.713 21.6411 14.5088 22.0691C14.3045 22.4972 14.1874 22.9616 14.1642 23.4353C14.1409 23.909 14.2121 24.3827 14.3735 24.8286C14.535 25.2746 14.7834 25.6841 15.1045 26.0332C15.4255 26.3823 15.8127 26.6642 16.2436 26.8623C16.6746 27.0605 17.1406 27.1711 17.6146 27.1876C18.0886 27.2041 18.5612 27.1262 19.0048 26.9584L19.7776 26.6784C13.6656 33.5008 6.97841 43.2225 6.47361 53.5017C6.06641 61.8281 7.83761 67.9529 11.8888 72.2265C17.8064 78.4681 27.4088 79.7617 40.0016 79.8417C52.0984 79.9177 62.28 78.6721 68.0584 72.4945C72.1544 68.2153 73.9464 62.0025 73.5368 53.5033C72.8384 38.9888 59.7488 25.5632 53.408 19.8824ZM27.136 6.36563C26.0864 3.51203 28.9184 1.41842 31.2104 2.87683C32.2809 3.58791 33.521 4.00202 34.804 4.07683C36.8808 4.07683 37.76 3.46243 38.1664 2.55763C38.5816 1.63523 41.4336 1.63603 41.848 2.55763C42.256 3.46243 43.1344 4.07603 45.2112 4.07603C46.4942 4.01032 47.735 3.59599 48.8 2.87763C51.1248 1.46562 53.932 3.51283 52.8792 6.36323C52.3104 7.83843 50.8544 10.8584 49.6376 13.3208C49.6123 13.3224 49.587 13.3237 49.5616 13.3248L49.5208 13.3264C49.4232 13.3304 49.3256 13.3344 49.2272 13.3496C43.1174 14.301 36.8971 14.301 30.7872 13.3496C30.643 13.332 30.498 13.3219 30.3528 13.3192C29.144 10.852 27.6992 7.83123 27.1368 6.36563H27.136ZM27.9576 16.624C28.1639 16.1397 28.5252 15.7376 28.9848 15.4809C29.4444 15.2242 29.9762 15.1274 30.4968 15.2056C36.7976 16.1956 43.2144 16.1956 49.5152 15.2056C52.5096 14.7976 53.3152 19.1312 50.3928 19.8392C43.5454 21.298 36.4675 21.298 29.62 19.8392C29.2861 19.7591 28.9733 19.608 28.703 19.3962C28.4327 19.1844 28.2111 18.9169 28.0534 18.6119C27.8957 18.3068 27.8055 17.9714 27.789 17.6284C27.7724 17.2854 27.83 16.9428 27.9576 16.624ZM19.88 14.4936C19.7011 14.4125 19.5399 14.2969 19.4057 14.1534C19.2715 14.01 19.1668 13.8415 19.0977 13.6576C19.0285 13.4737 18.9963 13.278 19.0028 13.0816C19.0093 12.8853 19.0545 12.6921 19.1356 12.5132C19.2168 12.3343 19.3324 12.1731 19.4758 12.0389C19.6193 11.9047 19.7877 11.8 19.9716 11.7309C20.1555 11.6618 20.3513 11.6295 20.5476 11.636C20.744 11.6426 20.9371 11.6877 21.116 11.7688L27.1728 14.5152C26.5286 15.1359 26.1012 15.9473 25.9536 16.8296L25.4424 17.0176L19.88 14.4936ZM18.364 25.1912C18.1528 25.273 17.9274 25.3118 17.701 25.3053C17.4746 25.2987 17.2517 25.247 17.0456 25.1532C16.8395 25.0593 16.6541 24.9252 16.5006 24.7587C16.347 24.5922 16.2282 24.3968 16.1512 24.1837C16.0742 23.9707 16.0406 23.7445 16.0523 23.5183C16.064 23.2921 16.1208 23.0705 16.2193 22.8665C16.3178 22.6626 16.4561 22.4804 16.626 22.3306C16.796 22.1808 16.9941 22.0666 17.2088 21.9944L26.0864 18.7808C26.2 19.1648 26.3688 19.5288 26.588 19.8624C25.2288 21.0835 23.9068 22.3454 22.624 23.6464L18.364 25.1904V25.1912ZM66.7 71.1953C61.2528 76.8849 52.1024 78.0137 40.0096 77.9609C29.528 77.9153 19.0328 77.0297 13.2528 70.9329C9.57441 67.0553 7.97121 61.3801 8.35361 53.5929C9.03601 39.6785 21.8504 26.6248 27.9504 21.172C28.3432 21.4073 28.7718 21.5767 29.2192 21.6736C36.3262 23.2328 43.6867 23.2328 50.7936 21.6736C51.2339 21.5771 51.6558 21.4104 52.0432 21.18C58.1496 26.6328 70.9912 39.6921 71.6608 53.5897C72.0416 61.5497 70.4193 67.3057 66.6992 71.1921L66.7 71.1953ZM54.436 47.4329C53.412 35.9424 47.3128 27.2248 40.0048 27.2248C32.6968 27.2248 26.5968 35.9424 25.5744 47.4329C23.9004 48.1981 22.4823 49.4296 21.4901 50.98C20.498 52.5303 19.9737 54.3338 19.98 56.1745V65.7401C19.92 67.9057 22.5696 69.5057 24.3888 68.1609C25.4056 67.4721 27.4752 65.6721 28.7944 64.5017C29.1784 64.8601 29.6064 65.1665 30.0688 65.4153C30.8552 67.3033 32.5464 69.4585 34.9776 69.7937C38.3152 70.2409 41.6968 70.2409 45.0336 69.7937C47.464 69.4577 49.1536 67.3025 49.9416 65.4153C50.4037 65.1667 50.8317 64.8597 51.2152 64.5017C52.5352 65.6721 54.604 67.4705 55.6208 68.1609C57.4384 69.5065 60.0904 67.9049 60.0304 65.7401V56.1737C60.037 54.333 59.5128 52.5294 58.5206 50.979C57.5284 49.4286 56.1102 48.1979 54.436 47.4329ZM40.0048 29.1048C42.6688 29.1048 45.1504 30.5208 47.2 32.9392C45.4456 33.9376 42.9856 34.464 40.0048 34.464C37.024 34.464 34.5648 33.9376 32.8088 32.9392C34.86 30.5208 37.3408 29.1048 40.0048 29.1048ZM23.3328 66.6033C22.6936 67.0937 21.8528 66.4337 21.8608 65.7385V56.1737C21.8563 54.8709 22.1826 53.5883 22.809 52.446C23.4354 51.3037 24.3415 50.3391 25.4424 49.6425C25.3108 53.8007 25.8873 57.9511 27.1472 61.9161C27.2752 62.2945 27.4408 62.6601 27.6392 63.0073C26.444 64.0713 24.2952 65.9489 23.3328 66.6033ZM44.7784 67.9281C41.6104 68.3521 38.4008 68.3521 35.2336 67.9281C34.2099 67.7191 33.3072 67.1208 32.716 66.2593C37.5184 67.3154 42.4929 67.3154 47.2952 66.2593C46.7043 67.121 45.8023 67.7194 44.7784 67.9281ZM51.076 61.3313C50.8573 62.0031 50.4753 62.6102 49.9643 63.0981C49.4533 63.5861 48.8292 63.9397 48.148 64.1273C42.8092 65.5252 37.2004 65.5252 31.8616 64.1273C31.1539 63.9322 30.5084 63.5581 29.9873 63.041C29.4662 62.524 29.087 61.8814 28.8864 61.1753C28.8728 61.1297 28.86 61.0841 28.8456 61.0393C32.4616 62.1451 36.2244 62.6959 40.0056 62.6729C43.7864 62.6961 47.5488 62.1449 51.1648 61.0393C51.151 61.0839 51.1376 61.1287 51.1248 61.1737L51.076 61.3313ZM40.0048 60.7929C36.0005 60.8277 32.0204 60.1689 28.2408 58.8457C27.5339 55.8261 27.2248 52.727 27.3216 49.6273C27.5216 43.5529 29.168 38.1753 31.6688 34.4496C33.7368 35.6896 36.5888 36.3433 40.0048 36.3433C43.4208 36.3433 46.276 35.6904 48.3408 34.4496C50.8408 38.1753 52.488 43.5537 52.6872 49.6273C52.7846 52.727 52.4758 55.8261 51.7688 58.8457C47.9893 60.1691 44.0092 60.8279 40.0048 60.7929ZM58.1496 65.7385C58.1576 66.4345 57.3176 67.0937 56.6776 66.6033C55.7144 65.9497 53.5656 64.0713 52.3704 63.0105C52.5696 62.6633 52.7344 62.2977 52.8624 61.9185C54.1232 57.9531 54.7002 53.8022 54.5688 49.6433C55.6695 50.34 56.5754 51.3047 57.2017 52.447C57.828 53.5893 58.1541 54.8718 58.1496 56.1745V65.7369V65.7385ZM37.4136 41.1729C37.9234 40.8322 38.4953 40.5953 39.0967 40.4757C39.698 40.356 40.317 40.356 40.9184 40.4756C41.5197 40.5952 42.0916 40.8321 42.6014 41.1727C43.1113 41.5134 43.549 41.9511 43.8896 42.4609C44.2303 42.9706 44.4672 43.5425 44.5868 44.1439C44.7064 44.7452 44.7065 45.3643 44.5869 45.9656C44.4673 46.567 44.2304 47.1389 43.8898 47.6487C43.5491 48.1585 43.1114 48.5962 42.6016 48.9369C41.5721 49.6248 40.3114 49.8756 39.0969 49.6341C37.8824 49.3925 36.8136 48.6784 36.1256 47.6489C35.4377 46.6193 35.1869 45.3586 35.4284 44.1441C35.6699 42.9296 36.3841 41.8608 37.4136 41.1729ZM38.4584 47.3745C38.7629 47.578 39.1045 47.7195 39.4637 47.791C39.823 47.8624 40.1927 47.8625 40.5519 47.791C40.9111 47.7196 41.2528 47.5781 41.5573 47.3747C41.8619 47.1712 42.1233 46.9098 42.3268 46.6053C42.5303 46.3007 42.6719 45.9591 42.7433 45.5999C42.8148 45.2407 42.8148 44.871 42.7434 44.5117C42.672 44.1525 42.5305 43.8109 42.327 43.5064C42.1236 43.2018 41.8621 42.9403 41.5576 42.7369C40.9426 42.3259 40.1896 42.176 39.4641 42.3203C38.7387 42.4645 38.1002 42.8911 37.6892 43.5061C37.2782 44.121 37.1284 44.8741 37.2727 45.5996C37.4169 46.325 37.8434 46.9635 38.4584 47.3745ZM79.1009 19.8936C77.1554 18.5266 75.7032 16.5682 74.9601 14.3096C74.7963 13.9001 74.5137 13.549 74.1485 13.3017C73.7833 13.0543 73.3523 12.9221 72.9112 12.9221C72.4702 12.9221 72.0392 13.0543 71.674 13.3017C71.3088 13.549 71.0262 13.9001 70.8624 14.3096C70.1193 16.5684 68.6667 18.5269 66.7208 19.8936C66.4423 20.099 66.2159 20.367 66.0599 20.6758C65.9039 20.9847 65.8226 21.326 65.8226 21.672C65.8226 22.0181 65.9039 22.3593 66.0599 22.6682C66.2159 22.9771 66.4423 23.2451 66.7208 23.4504C68.6667 24.8174 70.1194 26.7758 70.8633 29.0344C71.027 29.444 71.3096 29.7951 71.6748 30.0424C72.04 30.2897 72.471 30.4219 72.912 30.4219C73.3531 30.4219 73.7841 30.2897 74.1493 30.0424C74.5145 29.7951 74.7971 29.444 74.9608 29.0344C75.7041 26.776 77.1564 24.8176 79.1017 23.4504C79.3802 23.2451 79.6066 22.9771 79.7626 22.6682C79.9186 22.3593 79.9999 22.0181 79.9999 21.672C79.9999 21.326 79.9186 20.9847 79.7626 20.6758C79.6066 20.367 79.3794 20.099 79.1009 19.8936ZM77.9937 21.928C75.7549 23.5084 74.0776 25.7607 73.2048 28.3584C73.1847 28.4204 73.1454 28.4744 73.0926 28.5127C73.0399 28.5509 72.9764 28.5716 72.9112 28.5716C72.8461 28.5716 72.7826 28.5509 72.7299 28.5127C72.6771 28.4744 72.6378 28.4204 72.6177 28.3584C71.7446 25.7607 70.067 23.5084 67.828 21.928C67.7848 21.9002 67.7492 21.862 67.7245 21.8168C67.6999 21.7717 67.687 21.7211 67.687 21.6696C67.687 21.6182 67.6999 21.5676 67.7245 21.5224C67.7492 21.4773 67.7848 21.4391 67.828 21.4112C70.0672 19.8314 71.7449 17.5793 72.6177 14.9816C72.6384 14.9204 72.6779 14.8671 72.7305 14.8294C72.7831 14.7917 72.8461 14.7715 72.9109 14.7715C72.9756 14.7715 73.0386 14.7917 73.0912 14.8294C73.1438 14.8671 73.1833 14.9204 73.204 14.9816C74.0766 17.5792 75.754 19.8313 77.9929 21.4112C78.0363 21.4389 78.0722 21.477 78.097 21.5221C78.1219 21.5672 78.1349 21.6179 78.135 21.6694C78.1351 21.7209 78.1222 21.7716 78.0975 21.8168C78.0728 21.862 78.0371 21.9003 77.9937 21.928Z" fill="url(#paint0_linear_134_1891)"/>
</g>
<defs>
<linearGradient id="paint0_linear_134_1891" x1="1.9752" y1="-5.13278" x2="68.1489" y2="73.8809" gradientUnits="userSpaceOnUse">
<stop stop-color="#191825"/>
<stop offset="0.21" stop-color="#865DFF"/>
<stop offset="0.46" stop-color="#E384FF"/>
<stop offset="0.77" stop-color="#FFA3FD"/>
<stop offset="1" stop-color="#0AE2FF"/>
</linearGradient>
</defs>
</svg>
