<svg width="80" height="80" viewBox="0 0 80 80" fill="none" xmlns="http://www.w3.org/2000/svg">
<g clip-path="url(#clip0_134_1888)">
<path fill-rule="evenodd" clip-rule="evenodd" d="M33.8634 79.984C28.8198 79.984 24.7149 76.7408 24.7149 72.7584V72.5808L24.5022 72.4928C23.6647 72.2784 22.9346 71.86 22.4166 71.2977C21.8986 70.7353 21.6194 70.0579 21.6188 69.3624V67.776H21.313C20.6101 67.776 20.0703 67.3576 20.0703 66.8352C20.0703 66.312 20.6 65.8936 21.2623 65.8936H21.5672L21.6178 65.652V62.884H16.6268C16.3107 62.8838 16.0077 62.7845 15.7842 62.608C15.5607 62.4314 15.435 62.1921 15.4347 61.9424C15.4347 61.4192 15.9644 61.0008 16.6268 61.0008H18.1034L17.8806 60.6472C17.792 60.5115 17.7135 60.3718 17.6457 60.2288L14.0098 52.56C12.9797 50.3952 11.3907 48.384 9.30231 46.5896C3.21039 41.3912 -0.0902846 34.608 0.00187917 27.5024C0.0727744 22.0952 2.09025 16.8808 5.83858 12.4152C6.0624 12.1496 6.43005 11.9968 6.82706 11.9968C7.06101 11.9968 7.28585 12.0528 7.4793 12.1496C7.60966 12.2169 7.72187 12.3039 7.80943 12.4056C7.89698 12.5073 7.95816 12.6217 7.98943 12.7422C8.02069 12.8627 8.02142 12.9869 7.99157 13.1077C7.96173 13.2284 7.9019 13.3432 7.81554 13.4456C4.31482 17.6219 2.42473 22.5114 2.37484 27.52C2.27955 34.1149 5.3813 40.4887 11.0443 45.3352C13.3464 47.3144 15.0985 49.5272 16.2298 51.9248L19.8657 59.5936C20.068 60.0133 20.4266 60.3748 20.8941 60.6304C21.3616 60.886 21.9162 61.0238 22.4848 61.0256H29.2077C29.8599 61.0256 30.3997 61.444 30.3997 61.9672C30.3997 62.4904 29.87 62.9088 29.2077 62.9088H24.0029V65.9184H46.3531V62.9088H36.1767C35.8606 62.9086 35.5575 62.8093 35.334 62.6328C35.1105 62.4562 34.9849 62.2169 34.9846 61.9672C34.9846 61.444 35.5143 61.0256 36.1767 61.0256H47.8713C48.4402 61.0253 48.9955 60.8881 49.4632 60.6323C49.931 60.3765 50.2889 60.0142 50.4894 59.5936L53.9835 52.2392C55.2161 49.6312 57.0087 47.3224 59.2905 45.3592C64.8851 40.5778 67.9885 34.3044 67.9802 27.7936C67.9802 13.5024 53.2604 1.8832 35.178 1.8832C26.4782 1.8832 18.2989 4.5224 12.1351 9.3184C12.0252 9.40438 11.8947 9.47216 11.7512 9.51777C11.6077 9.56338 11.4542 9.58589 11.2995 9.584C10.9846 9.584 10.6787 9.4872 10.4549 9.3016C10.3443 9.21424 10.2568 9.11042 10.1974 8.99616C10.138 8.88189 10.1079 8.75945 10.1088 8.63593C10.1098 8.51241 10.1418 8.39026 10.2029 8.27657C10.264 8.16288 10.3531 8.0599 10.465 7.9736C17.0755 2.8336 25.8563 0 35.177 0C54.5729 0 70.3532 12.464 70.3532 27.7848C70.3532 34.7936 67.0414 41.4808 61.0315 46.6304C58.9532 48.4088 57.3247 50.5168 56.1934 52.8912L52.6993 60.2456C52.6284 60.3896 52.5463 60.5272 52.4643 60.664L52.2405 61.0176H53.7181C54.3694 61.0176 54.9092 61.436 54.9092 61.9592C54.9092 62.4824 54.3795 62.9008 53.7181 62.9008H48.7251V65.9104H49.032C49.7348 65.9104 50.2747 66.3288 50.2747 66.852C50.2747 67.3752 49.745 67.7936 49.0826 67.7936H48.7767L48.7261 68.0344V69.3784C48.7261 70.8104 47.5644 72.0664 45.8427 72.5088L45.63 72.5648V72.7416C45.63 76.7576 41.5242 80 36.4815 80H33.8533L33.8634 79.984ZM27.0889 72.9112C27.1902 75.7752 30.2265 78.1088 33.8634 78.1088H36.4916C40.1275 78.1088 43.1639 75.7752 43.2662 72.9112V72.6616H27.099V72.9112H27.0889ZM24.0019 69.3704C24.0019 70.1512 24.8071 70.7864 25.7946 70.7864H44.5494C45.5378 70.7864 46.342 70.1512 46.342 69.3704V67.784H24.0029V69.3696L24.0019 69.3704ZM72.1863 13.4624C71.7691 13.4624 71.3913 13.2928 71.1776 13.0192C71.0947 12.9149 71.0393 12.7983 71.015 12.6767C70.9906 12.555 70.9977 12.4307 71.0358 12.3112C71.1067 12.0704 71.2991 11.8608 71.5645 11.732L74.1937 10.444C74.3812 10.354 74.5952 10.3043 74.8145 10.3C75.2318 10.3 75.6096 10.468 75.8233 10.7424C75.9853 10.9512 76.0471 11.2088 75.965 11.4504C75.8942 11.692 75.7017 11.9008 75.4364 12.0296L72.8072 13.3176C72.6197 13.4076 72.4057 13.4581 72.1863 13.4624ZM65.5445 7.6848C65.7177 7.7568 65.9111 7.7968 66.1056 7.7968H66.1157C66.5532 7.7968 66.9604 7.6048 67.1649 7.2984L68.6213 5.1496C68.6961 5.04106 68.7427 4.92182 68.7583 4.79886C68.774 4.67591 68.7584 4.55173 68.7125 4.4336C68.6364 4.24124 68.4849 4.07293 68.28 3.95288C68.0751 3.83284 67.8272 3.76726 67.5721 3.7656C67.1346 3.7656 66.7264 3.9592 66.5228 4.2648L65.0664 6.4136C64.9917 6.52214 64.9451 6.64139 64.9294 6.76434C64.9138 6.88729 64.9294 7.01147 64.9753 7.1296C65.0563 7.3704 65.269 7.564 65.5445 7.6848ZM75.722 20.3416C75.4104 20.3418 75.1113 20.2447 74.8899 20.0715C74.6685 19.8983 74.5427 19.6629 74.5401 19.4168C74.5401 18.9016 75.0596 18.4752 75.7108 18.4672L78.7978 18.4432C79.4602 18.4432 79.9899 18.8616 80 19.3688C80 19.6176 79.8785 19.8512 79.6637 20.036C79.5549 20.1242 79.425 20.1945 79.2816 20.2428C79.1382 20.2911 78.9841 20.3166 78.8282 20.3176L75.7422 20.3416H75.722ZM28.5362 46.5496C29.2189 47.0902 30.0305 47.5186 30.924 47.8101C31.8175 48.1016 32.7752 48.2504 33.7419 48.248L33.7217 48.24C34.6882 48.2424 35.6458 48.0935 36.5391 47.802C37.4324 47.5105 38.2438 47.0821 38.9264 46.5416L43.3776 43.0256C43.6024 42.8488 43.725 42.6152 43.725 42.3656C43.725 42.116 43.6024 41.8832 43.3776 41.7056C43.2683 41.6186 43.1383 41.5497 42.995 41.5027C42.8518 41.4557 42.6981 41.4317 42.543 41.432C42.227 41.432 41.9313 41.5288 41.7075 41.7056L37.2563 45.2224C36.7935 45.5907 36.2428 45.8827 35.636 46.0815C35.0293 46.2804 34.3786 46.3821 33.7217 46.3808C33.0646 46.3822 32.4137 46.2805 31.8068 46.0817C31.1998 45.8828 30.6489 45.5908 30.186 45.2224L19.2651 36.596C18.7989 36.2304 18.4292 35.7954 18.1775 35.3161C17.9257 34.8369 17.7969 34.3229 17.7986 33.804C17.7969 33.2851 17.9257 32.7711 18.1775 32.2919C18.4292 31.8126 18.7989 31.3776 19.2651 31.012C20.2036 30.2735 21.475 29.8597 22.7997 29.8616C24.1346 29.8616 25.3986 30.2712 26.3344 31.012L32.8952 36.1936C33.1201 36.3712 33.4158 36.4672 33.7308 36.4672C34.0468 36.4672 34.3425 36.3712 34.5663 36.1936L47.6769 25.8376C48.6153 25.0991 49.8868 24.6853 51.2115 24.6872C52.5463 24.6872 53.8093 25.0976 54.7461 25.8376C55.2093 26.2046 55.5763 26.64 55.8264 27.1191C56.0765 27.5982 56.2046 28.1114 56.2035 28.6296C56.2057 29.1478 56.0781 29.6613 55.8282 30.1404C55.5782 30.6196 55.2108 31.055 54.7471 31.4216L46.6894 37.788C46.5789 37.8743 46.4914 37.9771 46.4317 38.0904C46.3721 38.2037 46.3416 38.3253 46.342 38.448C46.342 38.6976 46.4646 38.9304 46.6894 39.108C46.9122 39.284 47.2079 39.3808 47.5239 39.3808C47.8399 39.3808 48.1357 39.2848 48.3595 39.1072L56.4172 32.7424C59.2905 30.4736 59.2905 26.78 56.4172 24.5104C55.7344 23.9699 54.9228 23.5416 54.0293 23.2503C53.1358 22.9589 52.1781 22.8102 51.2115 22.8128C50.2448 22.8103 49.287 22.9591 48.3935 23.2506C47.5 23.5422 46.6885 23.9706 46.0058 24.5112L33.7308 34.2072L28.0166 29.6928C27.3357 29.1498 26.5247 28.7193 25.6309 28.4264C24.7371 28.1336 23.7785 27.9843 22.8109 27.9872C21.8434 27.985 20.8851 28.1347 19.9914 28.4275C19.0978 28.7203 18.2867 29.1504 17.6052 29.6928C16.9177 30.2307 16.3727 30.8713 16.002 31.5773C15.6312 32.2833 15.4422 33.0405 15.4459 33.8048C15.4459 35.3576 16.2095 36.8144 17.6052 37.9168L28.5362 46.5496Z" fill="url(#paint0_linear_134_1888)"/>
</g>
<defs>
<linearGradient id="paint0_linear_134_1888" x1="1.9752" y1="-5.14275" x2="68.2999" y2="73.8978" gradientUnits="userSpaceOnUse">
<stop stop-color="#191825"/>
<stop offset="0.21" stop-color="#865DFF"/>
<stop offset="0.46" stop-color="#E384FF"/>
<stop offset="0.77" stop-color="#FFA3FD"/>
<stop offset="1" stop-color="#0AE2FF"/>
</linearGradient>
<clipPath id="clip0_134_1888">
<rect width="80" height="80" fill="white"/>
</clipPath>
</defs>
</svg>
